<svg viewBox="0 0 24 20" fill="none" xmlns="http://www.w3.org/2000/svg">
<path d="M21.0625 4.72656L18.875 1.25H5.08594L2.89844 4.72656C2.15625 5.89844 2.89844 7.34375 4.03125 7.5C4.14844 7.5 4.22656 7.5 4.34375 7.5C5.00781 7.5 5.55469 7.22656 5.94531 6.79688C6.17969 6.52344 6.53125 6.40625 6.88281 6.40625C7.23438 6.40625 7.58594 6.52344 7.82031 6.79688C8.21094 7.22656 8.79688 7.5 9.42188 7.5C10.0859 7.5 10.6719 7.22656 11.0625 6.79688C11.2969 6.52344 11.6484 6.36719 12 6.36719C12.3516 6.36719 12.6641 6.52344 12.8984 6.79688C13.2891 7.22656 13.875 7.5 14.5391 7.5C15.1641 7.5 15.75 7.22656 16.1406 6.79688C16.375 6.52344 16.7266 6.36719 17.0781 6.36719C17.4297 6.36719 17.7422 6.52344 18.0156 6.79688C18.4062 7.22656 18.9922 7.5 19.6172 7.5C19.7344 7.5 19.8125 7.5 19.9297 7.5C21.0625 7.34375 21.8047 5.89844 21.0625 4.72656ZM19.6172 8.75C18.8359 8.75 18.1328 8.51562 17.5859 8.08594C17.3906 7.96875 17.2344 7.8125 17.0781 7.61719C16.9219 7.8125 16.7656 7.96875 16.5703 8.08594C15.9844 8.51562 15.2812 8.75 14.5391 8.75C13.7578 8.75 13.0547 8.51562 12.5078 8.08594C12.3125 7.96875 12.1172 7.8125 11.9609 7.61719C11.8047 7.8125 11.6484 7.96875 11.4531 8.08594C10.9062 8.51562 10.2031 8.75 9.42188 8.75C8.67969 8.75 7.97656 8.51562 7.39062 8.08594C7.19531 7.96875 7.03906 7.8125 6.88281 7.65625C6.72656 7.8125 6.57031 7.96875 6.375 8.08594C5.78906 8.51562 5.08594 8.75 4.34375 8.75C4.1875 8.75 4.03125 8.75 3.875 8.75C1.6875 8.4375 0.671875 5.89844 1.84375 4.0625L4.07031 0.546875C4.26562 0.195312 4.61719 0 5.00781 0H18.9531C19.3438 0 19.6953 0.195312 19.8906 0.546875L22.1172 4.0625C23.2891 5.89844 22.2734 8.4375 20.0859 8.75C19.9297 8.75 19.7734 8.75 19.6172 8.75ZM3.875 10C4.1875 10 4.5 10.3125 4.5 10.625V13.75H19.5V10.625C19.5 10.3125 19.7734 10 20.125 10C20.4375 10 20.75 10.3125 20.75 10.625V13.75V14.375V15V17.5C20.75 18.9062 19.6172 20 18.25 20H5.75C4.34375 20 3.25 18.9062 3.25 17.5V15V14.375V13.75V10.625C3.25 10.3125 3.52344 10 3.875 10ZM4.5 15V17.5C4.5 18.2031 5.04688 18.75 5.75 18.75H18.25C18.9141 18.75 19.5 18.2031 19.5 17.5V15H4.5Z" fill="currentColor"/>
</svg>
