<svg viewBox="0 0 22 20" fill="none" xmlns="http://www.w3.org/2000/svg">
<path d="M18.7109 8.125C18.3984 4.49219 15.5078 1.60156 11.875 1.28906V8.125H18.7109ZM11.25 9.375C10.8984 9.375 10.625 9.10156 10.625 8.75V0.625C10.625 0.3125 10.8594 0 11.1719 0H11.25C16.0547 0 20 3.94531 20 8.75V8.82812C19.9609 9.14062 19.6875 9.375 19.375 9.375H11.25ZM7.85156 12.1484C7.61719 11.9141 7.5 11.6016 7.5 11.25V2.73438C3.90625 3.59375 1.25 6.79688 1.25 10.625C1.25 15.1172 4.88281 18.75 9.375 18.75C10.8203 18.75 12.1875 18.3594 13.3984 17.6953L7.85156 12.1484ZM8.08594 1.36719C8.4375 1.28906 8.75 1.60156 8.75 1.95312V11.25L14.8438 17.3828C15.1172 17.6562 15.0781 18.0859 14.8047 18.2812C13.2422 19.375 11.3672 20 9.375 20C4.17969 20 0 15.8203 0 10.625C0 5.89844 3.51562 1.99219 8.08594 1.36719ZM17.8516 16.1328C18.7891 15.1172 19.4531 13.8672 19.7656 12.5H14.2578L17.8516 16.1328ZM21.1328 11.9141V11.9531C20.8594 14.1016 19.8047 16.0547 18.2422 17.5C18.0078 17.6953 17.6562 17.6953 17.4219 17.4609L12.3047 12.3438C11.9141 11.9531 12.1875 11.25 12.7344 11.25H20.5469C20.8984 11.25 21.2109 11.5625 21.1328 11.9141Z" fill="currentColor"/>
</svg>
