<svg viewBox="0 0 20 20" fill="none" xmlns="http://www.w3.org/2000/svg">
<path d="M7.42188 2.8125C7.26562 3.08594 6.99219 3.20312 6.67969 3.125C5.70312 2.8125 4.57031 3.04688 3.78906 3.82812C3.00781 4.60938 2.77344 5.74219 3.08594 6.71875C3.16406 7.03125 3.04688 7.30469 2.77344 7.46094C1.83594 7.92969 1.25 8.90625 1.25 10C1.25 11.1328 1.83594 12.0703 2.77344 12.5781C3.04688 12.7344 3.16406 13.0078 3.08594 13.3203C2.77344 14.2969 3.00781 15.4297 3.78906 16.2109C4.57031 16.9922 5.70312 17.2266 6.67969 16.9141C6.99219 16.8359 7.30469 16.9531 7.42188 17.2266C7.92969 18.1641 8.86719 18.75 10 18.75C11.0938 18.75 12.0703 18.1641 12.5391 17.2266C12.6953 16.9531 13.0078 16.8359 13.2812 16.9141C14.2578 17.2266 15.3906 16.9922 16.1719 16.2109C16.9531 15.4297 17.1875 14.2969 16.875 13.3203C16.7969 13.0078 16.9141 12.6953 17.1875 12.5781C18.125 12.0703 18.75 11.1328 18.75 10C18.75 8.90625 18.125 7.92969 17.1875 7.46094C16.9141 7.30469 16.7969 6.99219 16.875 6.71875C17.1875 5.74219 16.9531 4.60938 16.1719 3.82812C15.3906 3.04688 14.2578 2.8125 13.2812 3.125C12.9688 3.20312 12.6953 3.08594 12.5391 2.8125C12.0703 1.875 11.0938 1.25 10 1.25C8.86719 1.25 7.92969 1.875 7.42188 2.8125ZM10 0C11.4062 0 12.6562 0.742188 13.3984 1.79688C14.6875 1.5625 16.0547 1.95312 17.0703 2.92969C18.0469 3.94531 18.4375 5.3125 18.2031 6.60156C19.2578 7.34375 20 8.59375 20 10C20 11.4453 19.2578 12.6562 18.2031 13.4375C18.4375 14.7266 18.0469 16.0938 17.0703 17.0703C16.0547 18.0859 14.6875 18.4766 13.3984 18.2422C12.6562 19.2969 11.4062 20 10 20C8.55469 20 7.34375 19.2969 6.5625 18.2422C5.27344 18.4766 3.90625 18.0859 2.92969 17.0703C1.91406 16.0938 1.52344 14.7266 1.75781 13.4375C0.703125 12.6562 0 11.4453 0 10C0 8.59375 0.703125 7.34375 1.75781 6.60156C1.52344 5.3125 1.91406 3.94531 2.92969 2.92969C3.90625 1.95312 5.27344 1.5625 6.5625 1.79688C7.34375 0.742188 8.55469 0 10 0ZM13.5547 6.44531C13.7891 6.67969 13.7891 7.10938 13.5547 7.34375L7.30469 13.5938C7.07031 13.8281 6.64062 13.8281 6.40625 13.5938C6.17188 13.3594 6.17188 12.9297 6.40625 12.6953L12.6562 6.44531C12.8906 6.21094 13.3203 6.21094 13.5547 6.44531ZM7.5 8.4375C6.95312 8.4375 6.5625 8.04688 6.5625 7.5C6.5625 6.99219 6.95312 6.5625 7.5 6.5625C8.00781 6.5625 8.4375 6.99219 8.4375 7.5C8.4375 8.04688 8.00781 8.4375 7.5 8.4375ZM12.5 13.4375C11.9531 13.4375 11.5625 13.0469 11.5625 12.5C11.5625 11.9922 11.9531 11.5625 12.5 11.5625C13.0078 11.5625 13.4375 11.9922 13.4375 12.5C13.4375 13.0469 13.0078 13.4375 12.5 13.4375Z" fill="currentColor"/>
</svg>
