<svg width="18" height="20" viewBox="0 0 18 20" fill="none" xmlns="http://www.w3.org/2000/svg">
<path d="M8.375 0.625C8.375 0.3125 8.64844 0 9 0C9.3125 0 9.625 0.3125 9.625 0.625V1.28906C12.75 1.60156 15.25 4.25781 15.25 7.5V8.67188C15.25 10.3516 15.9141 11.9922 17.125 13.2031L17.2422 13.3203C17.5547 13.6328 17.75 14.1016 17.75 14.5312C17.75 15.5078 16.9688 16.2891 15.9922 16.2891H1.96875C0.992188 16.25 0.25 15.5078 0.25 14.5312C0.25 14.0625 0.40625 13.6328 0.757812 13.3203L0.835938 13.2031C2.04688 11.9922 2.75 10.3516 2.75 8.67188V7.5C2.75 4.25781 5.21094 1.60156 8.375 1.28906V0.625ZM9 2.5C6.22656 2.5 4 4.76562 4 7.5V8.67188C4 10.7031 3.17969 12.6562 1.73438 14.1016L1.61719 14.1797C1.53906 14.2969 1.5 14.4141 1.5 14.5312C1.5 14.8047 1.69531 15 1.96875 15H15.9922C16.2656 15 16.5 14.8047 16.5 14.5312C16.5 14.4141 16.4219 14.2969 16.3438 14.1797L16.2266 14.1016C14.7812 12.6562 13.9609 10.7031 13.9609 8.63281V7.5C13.9609 4.76562 11.7344 2.5 8.96094 2.5H9ZM7.78906 17.9297C7.98438 18.4375 8.45312 18.75 9 18.75C9.50781 18.75 9.97656 18.4375 10.1719 17.9297C10.2891 17.6172 10.6406 17.4219 10.9531 17.5391C11.2656 17.6562 11.4609 18.0078 11.3438 18.3594C10.9922 19.3359 10.0547 20 9 20C7.90625 20 6.96875 19.3359 6.61719 18.3594C6.5 18.0078 6.69531 17.6562 7.00781 17.5391C7.32031 17.4219 7.67188 17.6172 7.78906 17.9297Z" fill="white"/>
</svg>
