<svg width="16" height="20" viewBox="0 0 16 20" fill="none" xmlns="http://www.w3.org/2000/svg">
<path d="M14.25 17.5V7.5H9.875C8.82031 7.5 8 6.67969 8 5.625V1.25H3C2.29688 1.25 1.75 1.83594 1.75 2.5V17.5C1.75 18.2031 2.29688 18.75 3 18.75H13C13.6641 18.75 14.25 18.2031 14.25 17.5ZM14.2109 6.25C14.1719 6.17188 14.1328 6.05469 14.0547 5.97656L9.52344 1.44531C9.44531 1.36719 9.32812 1.32812 9.25 1.28906V5.625C9.25 5.97656 9.52344 6.25 9.875 6.25H14.2109ZM0.5 2.5C0.5 1.13281 1.59375 0 3 0H9.09375C9.5625 0 10.0703 0.234375 10.4219 0.585938L14.9141 5.07812C15.2656 5.42969 15.5 5.9375 15.5 6.40625V17.5C15.5 18.9062 14.3672 20 13 20H3C1.59375 20 0.5 18.9062 0.5 17.5V2.5ZM3 3.125C3 2.8125 3.27344 2.5 3.625 2.5H6.125C6.4375 2.5 6.75 2.8125 6.75 3.125C6.75 3.47656 6.4375 3.75 6.125 3.75H3.625C3.27344 3.75 3 3.47656 3 3.125ZM3 5.625C3 5.3125 3.27344 5 3.625 5H6.125C6.4375 5 6.75 5.3125 6.75 5.625C6.75 5.97656 6.4375 6.25 6.125 6.25H3.625C3.27344 6.25 3 5.97656 3 5.625ZM3 8.125C3 7.8125 3.27344 7.5 3.625 7.5H6.125C6.4375 7.5 6.75 7.8125 6.75 8.125C6.75 8.47656 6.4375 8.75 6.125 8.75H3.625C3.27344 8.75 3 8.47656 3 8.125ZM4.25 10H5.5C5.77344 10 6.00781 10.1953 6.08594 10.4688L6.67188 12.4609C6.71094 12.6562 6.75 12.8516 6.75 13.0078V13.125C6.75 14.1797 5.89062 15 4.875 15C3.82031 15 3 14.1797 3 13.125V13.0078C3 12.8516 3 12.6562 3.07812 12.4609L3.625 10.4688C3.70312 10.1953 3.9375 10 4.25 10ZM4.25 12.8125C4.25 12.8906 4.25 12.9688 4.25 13.0078V13.125C4.25 13.4766 4.52344 13.75 4.875 13.75C5.1875 13.75 5.5 13.4766 5.5 13.125V13.0078C5.5 12.9688 5.46094 12.8906 5.46094 12.8125L4.99219 11.25H4.71875L4.25 12.8125Z" fill="white"/>
</svg>
