<svg width="16" height="20" viewBox="0 0 16 20" fill="none" xmlns="http://www.w3.org/2000/svg">
<path d="M13 18.75C13.6641 18.75 14.25 18.2031 14.25 17.5V7.5H9.875C8.82031 7.5 8 6.67969 8 5.625V1.25H3C2.29688 1.25 1.75 1.83594 1.75 2.5V17.5C1.75 18.2031 2.29688 18.75 3 18.75H13ZM9.875 6.25H14.2109C14.1719 6.17188 14.1328 6.05469 14.0547 5.97656L9.52344 1.44531C9.44531 1.36719 9.32812 1.32812 9.25 1.28906V5.625C9.25 5.97656 9.52344 6.25 9.875 6.25ZM3 0H9.09375C9.5625 0 10.0703 0.234375 10.4219 0.585938L14.9141 5.07812C15.2656 5.42969 15.5 5.9375 15.5 6.40625V17.5C15.5 18.9062 14.3672 20 13 20H3C1.59375 20 0.5 18.9062 0.5 17.5V2.5C0.5 1.13281 1.59375 0 3 0ZM11.5547 11.4844L7.375 15.6641C7.14062 15.8984 6.75 15.8984 6.51562 15.6641L4.40625 13.5938C4.17188 13.3594 4.17188 12.9297 4.40625 12.6953C4.64062 12.4609 5.07031 12.4609 5.30469 12.6953L6.94531 14.3359L10.6562 10.625C10.8906 10.3906 11.3203 10.3906 11.5547 10.625C11.7891 10.8594 11.7891 11.25 11.5547 11.4844Z" fill="white"/>
</svg>
