<svg viewBox="0 0 26 21" fill="none" xmlns="http://www.w3.org/2000/svg">
<path d="M4.25 4.125C4.25 4.82812 4.60156 5.41406 5.1875 5.76562C5.73438 6.11719 6.47656 6.11719 7.0625 5.76562C7.60938 5.41406 8 4.82812 8 4.125C8 3.46094 7.60938 2.875 7.0625 2.52344C6.47656 2.17188 5.73438 2.17188 5.1875 2.52344C4.60156 2.875 4.25 3.46094 4.25 4.125ZM9.25 4.125C9.25 5.25781 8.625 6.27344 7.6875 6.85938C6.71094 7.40625 5.5 7.40625 4.5625 6.85938C3.58594 6.27344 3 5.25781 3 4.125C3 3.03125 3.58594 2.01562 4.5625 1.42969C5.5 0.882812 6.71094 0.882812 7.6875 1.42969C8.625 2.01562 9.25 3.03125 9.25 4.125ZM13 7.25C12.1016 7.25 11.2812 7.75781 10.8125 8.5C10.3828 9.28125 10.3828 10.2578 10.8125 11C11.2812 11.7812 12.1016 12.25 13 12.25C13.8594 12.25 14.6797 11.7812 15.1484 11C15.5781 10.2578 15.5781 9.28125 15.1484 8.5C14.6797 7.75781 13.8594 7.25 13 7.25ZM13 13.5C11.6328 13.5 10.4219 12.7969 9.71875 11.625C9.05469 10.4922 9.05469 9.04688 9.71875 7.875C10.4219 6.74219 11.6328 6 13 6C14.3281 6 15.5391 6.74219 16.2422 7.875C16.9062 9.04688 16.9062 10.4922 16.2422 11.625C15.5391 12.7969 14.3281 13.5 13 13.5ZM10.6953 16C8.58594 16 6.82812 17.6797 6.75 19.75H19.2109C19.1328 17.6797 17.375 16 15.2656 16H10.6953ZM10.6953 14.75H15.2656C18.1562 14.75 20.5 17.0938 20.5 19.9844C20.5 20.5703 20.0312 21 19.4453 21H6.51562C5.92969 21 5.5 20.5312 5.5 19.9844C5.5 17.0938 7.80469 14.75 10.6953 14.75ZM20.5 2.25C19.7969 2.25 19.2109 2.64062 18.8594 3.1875C18.5078 3.77344 18.5078 4.51562 18.8594 5.0625C19.2109 5.64844 19.7969 6 20.5 6C21.1641 6 21.75 5.64844 22.1016 5.0625C22.4531 4.51562 22.4531 3.77344 22.1016 3.1875C21.75 2.64062 21.1641 2.25 20.5 2.25ZM20.5 7.25C19.3672 7.25 18.3516 6.66406 17.7656 5.6875C17.2188 4.75 17.2188 3.53906 17.7656 2.5625C18.3516 1.625 19.3672 1 20.5 1C21.5938 1 22.6094 1.625 23.1953 2.5625C23.7422 3.53906 23.7422 4.75 23.1953 5.6875C22.6094 6.66406 21.5938 7.25 20.5 7.25ZM21.125 9.75H18C18 9.32031 17.9219 8.92969 17.8438 8.5H21.125C23.5078 8.5 25.5 10.4922 25.5 12.875C25.5 13.2266 25.1875 13.5 24.875 13.5C24.5234 13.5 24.25 13.2266 24.25 12.875C24.25 11.1562 22.8438 9.75 21.125 9.75ZM8 9.75H4.875C3.11719 9.75 1.75 11.1562 1.75 12.875C1.75 13.2266 1.4375 13.5 1.125 13.5C0.773438 13.5 0.5 13.2266 0.5 12.875C0.5 10.4922 2.45312 8.5 4.875 8.5H8.15625C8.03906 8.92969 8 9.32031 8 9.75Z" fill="currentColor"/>
</svg>
