<svg viewBox="0 0 19 18" fill="none" xmlns="http://www.w3.org/2000/svg">
<path d="M7.32031 4H15.25V1.5H7.32031L6.07031 2.75L7.32031 4ZM6.42188 0.640625C6.65625 0.40625 6.96875 0.25 7.32031 0.25H15.25C15.9141 0.25 16.5 0.835938 16.5 1.5V4C16.5 4.70312 15.9141 5.25 15.25 5.25H7.32031C6.96875 5.25 6.65625 5.13281 6.42188 4.89844L4.74219 3.21875C4.50781 2.98438 4.50781 2.55469 4.74219 2.32031L6.42188 0.640625ZM1.5 4C0.796875 4 0.25 3.45312 0.25 2.75C0.25 2.08594 0.796875 1.5 1.5 1.5C2.16406 1.5 2.75 2.08594 2.75 2.75C2.75 3.45312 2.16406 4 1.5 4ZM1.5 10.25C0.796875 10.25 0.25 9.70312 0.25 9C0.25 8.33594 0.796875 7.75 1.5 7.75C2.16406 7.75 2.75 8.33594 2.75 9C2.75 9.70312 2.16406 10.25 1.5 10.25ZM0.25 15.25C0.25 14.5859 0.796875 14 1.5 14C2.16406 14 2.75 14.5859 2.75 15.25C2.75 15.9531 2.16406 16.5 1.5 16.5C0.796875 16.5 0.25 15.9531 0.25 15.25ZM7.32031 16.5H15.25V14H7.32031L6.07031 15.25L7.32031 16.5ZM6.42188 13.1406C6.65625 12.9062 6.96875 12.75 7.32031 12.75H15.25C15.9141 12.75 16.5 13.3359 16.5 14V16.5C16.5 17.2031 15.9141 17.75 15.25 17.75H7.32031C6.96875 17.75 6.65625 17.6328 6.42188 17.3984L4.74219 15.7188C4.50781 15.4844 4.50781 15.0547 4.74219 14.8203L6.42188 13.1406ZM6.07031 9L7.32031 10.25H17.75V7.75H7.32031L6.07031 9ZM4.74219 8.57031L6.42188 6.89062C6.65625 6.65625 6.96875 6.5 7.32031 6.5H17.75C18.4141 6.5 19 7.08594 19 7.75V10.25C19 10.9531 18.4141 11.5 17.75 11.5H7.32031C6.96875 11.5 6.65625 11.3828 6.42188 11.1484L4.74219 9.46875C4.50781 9.23438 4.50781 8.80469 4.74219 8.57031Z" fill="currentColor"/>
</svg>
