<svg width="26" height="21" viewBox="0 0 26 21" fill="none" xmlns="http://www.w3.org/2000/svg">
<path d="M8.39062 11.25H14.25C14.9141 11.25 15.5 10.7031 15.5 10V2.5C15.5 1.83594 14.9141 1.25 14.25 1.25H3C2.29688 1.25 1.75 1.83594 1.75 2.5V10C1.75 10.7031 2.29688 11.25 3 11.25H4.25C4.91406 11.25 5.5 11.8359 5.5 12.5V13.125L7.64844 11.5234C7.88281 11.3672 8.11719 11.25 8.39062 11.25ZM14.25 12.5H8.39062L5.22656 14.8828C5.03125 15.0391 4.79688 15.0391 4.5625 14.9609C4.36719 14.8438 4.25 14.6484 4.25 14.375V13.75V12.5H3C1.59375 12.5 0.5 11.4062 0.5 10V2.5C0.5 1.13281 1.59375 0 3 0H14.25C15.6172 0 16.75 1.13281 16.75 2.5V10C16.75 11.4062 15.6172 12.5 14.25 12.5ZM13 17.5C11.5938 17.5 10.5 16.4062 10.5 15V13.75H11.75V15C11.75 15.7031 12.2969 16.25 13 16.25H17.5703C17.8438 16.25 18.1172 16.3672 18.3125 16.5234L20.5 18.125V17.5C20.5 16.8359 21.0469 16.25 21.75 16.25H23C23.6641 16.25 24.25 15.7031 24.25 15V7.5C24.25 6.83594 23.6641 6.25 23 6.25H18V5H23C24.3672 5 25.5 6.13281 25.5 7.5V15C25.5 16.4062 24.3672 17.5 23 17.5H21.75V18.75V19.375C21.75 19.6484 21.5938 19.8438 21.3984 19.9609C21.1641 20.0391 20.9297 20.0391 20.7344 19.8828L17.5703 17.5H13Z" fill="white"/>
</svg>
